<?xml version="1.0" encoding="UTF-8"?>
<svg width="32px" height="34px" viewBox="0 0 32 34" version="1.1" xmlns="http://www.w3.org/2000/svg" xmlns:xlink="http://www.w3.org/1999/xlink">
    <title>编组</title>
    <g id="最终版" stroke="none" stroke-width="1" fill="none" fill-rule="evenodd">
        <g id="首页-查看列表" transform="translate(-691, -199)" fill="#FFFFFF">
            <g id="编组" transform="translate(691.0097, 199)">
                <g id="ditu" fill-rule="nonzero">
                    <path d="M31.7304838,29.4949723 L29.6054858,22.7746661 C29.1568941,21.3319969 27.8225422,20.3484504 26.3117389,20.3467966 L23.1986168,20.3467966 C22.3184138,20.3467966 21.6048683,21.0604014 21.6048683,21.9406044 C21.6048683,22.8208074 22.3184138,23.5343529 23.1986168,23.5343529 L26.3117389,23.5343529 C26.4354221,23.5332511 26.5453413,23.6129964 26.5826762,23.7309152 L28.7076742,30.4512214 C28.7356761,30.5363571 28.7197656,30.6298315 28.6651742,30.7009087 C28.6128391,30.7750137 28.5274544,30.8186988 28.4367369,30.8177836 L3.48394786,30.8177836 C3.39323034,30.8186988 3.30784566,30.7750137 3.25551058,30.7009087 C3.19724604,30.6317593 3.17731874,30.5381009 3.20238563,30.4512214 L5.32738362,23.7309152 C5.3647185,23.6129964 5.47463771,23.5332511 5.59832086,23.5343529 L8.51488065,23.5343529 C9.39508364,23.5343529 10.1086291,22.8208074 10.1086291,21.9406044 C10.1086291,21.0604014 9.39508364,20.3467966 8.51488065,20.3467966 L5.59300836,20.3467966 C4.07519474,20.3379901 2.73068597,21.324251 2.28332398,22.7746661 L0.158325964,29.4949723 C-0.172084438,30.5509023 0.0210089317,31.7011055 0.678122092,32.5912524 C1.33523525,33.4813993 2.37754073,34.0047076 3.48394786,34 L28.4207994,34 C29.5256758,34.0001528 30.5645609,33.4740189 31.2182175,32.5832413 C31.8718741,31.6924637 32.062116,30.5435914 31.7304838,29.4896598 L31.7304838,29.4949723 Z" id="路径"></path>
                    <path d="M15.9523736,24.6127894 C16.8741435,24.6106713 17.749863,24.2096228 18.3536214,23.5131029 C21.3551811,20.0599811 26.1045516,13.9877994 26.1045516,10.152178 C26.1045516,4.54528489 21.5592667,0 15.9523736,0 C10.3454806,0 5.8001957,4.54528489 5.8001957,10.152178 C5.8001957,13.9877994 10.5495662,20.0599811 13.5511259,23.5131029 C14.1548843,24.2096228 15.0306038,24.6106713 15.9523736,24.6127894 Z M15.9523736,3.187497 C19.7976465,3.19042673 22.9141249,6.30690506 22.9170546,10.152178 C22.9170546,11.6503015 21.0948688,15.5018604 15.9576861,21.4252924 C10.8098785,15.5018605 8.98769269,11.6503016 8.98769269,10.152178 C8.99062242,6.30690506 12.1071008,3.19042673 15.9523736,3.187497 Z" id="形状"></path>
                </g>
                <circle id="椭圆形" cx="16" cy="11" r="3"></circle>
            </g>
        </g>
    </g>
</svg>