<?xml version="1.0" encoding="UTF-8"?>
<svg width="44px" height="43px" viewBox="0 0 44 43" version="1.1" xmlns="http://www.w3.org/2000/svg" xmlns:xlink="http://www.w3.org/1999/xlink">
    <title>kefu</title>
    <g id="最终版" stroke="none" stroke-width="1" fill="none" fill-rule="evenodd">
        <g id="消息" transform="translate(-53, -882)" fill="#000000" fill-rule="nonzero">
            <g id="编组-5" transform="translate(30, 858)">
                <g id="kefu" transform="translate(23, 24)">
                    <path d="M38.1758623,6.42377514 C33.9678766,2.2157894 28.0566585,-0.188773874 22.1454405,0.0116064149 C16.0338421,-0.0885837061 10.1226241,2.2157894 5.91463832,6.42377514 C2.007223,10.4313806 -0.0967698737,15.6412677 0.00342029422,21.0515351 C0.00342029422,24.7585701 1.00532164,28.3654151 2.70855398,31.4713093 L1.30589205,35.5791049 C0.804941356,37.0819569 1.10551177,38.6849991 2.20760328,39.8872808 C3.10931451,40.8891822 4.21140603,41.3901329 5.51387779,41.3901329 C5.8144482,41.3901329 6.01482849,41.3901329 6.3153989,41.2899427 L12.5271873,40.1878512 C15.4327013,41.490323 18.6387857,42.0914638 21.9450602,42.0914638 L22.4460109,42.0914638 C28.3572289,42.0914638 33.9678766,39.7870906 38.0756722,35.6792951 C42.0832776,31.6716896 44.1872705,26.4618025 43.9868903,21.0515351 C44.1872705,15.5410776 42.0832777,10.4313806 38.1758623,6.42377514 Z M22.0452503,32.0724501 C15.8334618,32.0724501 10.823955,27.1631335 10.823955,21.0515351 C10.823955,19.9494436 11.7256663,19.0477324 12.8277577,19.0477324 C13.9298492,19.0477324 14.8315605,19.9494436 14.8315605,21.0515351 C14.8315605,24.9589504 18.0376449,28.0648447 22.0452503,28.0648447 C26.0528558,28.0648447 29.2589402,24.9589504 29.2589402,21.0515351 C29.2589402,19.9494436 30.1606514,19.0477324 31.2627429,19.0477324 C32.3648344,19.0477324 33.2665456,19.9494436 33.2665456,21.0515351 C33.2665456,27.1631334 28.2570388,32.0724501 22.0452503,32.0724501 Z" id="形状"></path>
                </g>
            </g>
        </g>
    </g>
</svg>