<?xml version="1.0" encoding="UTF-8"?>
<svg width="44px" height="43px" viewBox="0 0 44 43" version="1.1" xmlns="http://www.w3.org/2000/svg" xmlns:xlink="http://www.w3.org/1999/xlink">
    <title>编组 2</title>
    <defs>
        <linearGradient x1="2.12330153e-13%" y1="2.46791667%" x2="100%" y2="97.5320833%" id="linearGradient-1">
            <stop stop-color="#333844" offset="0%"></stop>
            <stop stop-color="#525461" offset="100%"></stop>
        </linearGradient>
        <linearGradient x1="2.12330153e-13%" y1="0.149615159%" x2="100%" y2="99.8503848%" id="linearGradient-2">
            <stop stop-color="#333844" offset="0%"></stop>
            <stop stop-color="#525461" offset="100%"></stop>
        </linearGradient>
    </defs>
    <g id="最终版" stroke="none" stroke-width="1" fill="none" fill-rule="evenodd">
        <g id="首页" transform="translate(-58, -1485)" fill-rule="nonzero">
            <g id="编组-2" transform="translate(58, 1485)">
                <path d="M21.8560175,3 C22.2397338,3 22.6356389,3.07692019 22.9412455,3.29393401 L39.7615911,13.6294177 C40.4137995,14.0729968 40.9706862,14.6888135 40.9706862,15.4958295 L40.9706862,33.832561 C40.9706862,35.4712855 40.2659417,36.9725524 39.1674506,38.0693987 C38.0673126,39.1678895 36.561295,39.8717949 34.9178979,39.8717949 L9.05278832,39.8717949 C7.40939127,39.8717949 5.90337361,39.1678895 4.80323559,38.0693986 C3.70474455,36.9725523 3,35.4712855 3,33.832561 L3,15.4958295 C3,14.7351217 3.30941061,14.0727525 3.95385759,13.6273202 L20.7707896,3.29393401 C21.0763962,3.07692019 21.4723013,3 21.8560175,3 Z" id="路径" stroke="url(#linearGradient-1)" stroke-width="6"></path>
                <path d="M21.726692,31.2499228 C18.1055767,31.2499228 15.2604146,28.4090207 15.2604146,24.7933271 C15.2604146,21.1776336 18.1055767,18.3367315 21.726692,18.3367315 C25.3478073,18.3367315 28.1929694,21.1776336 28.1929694,24.7933271 C28.1929694,28.4090207 25.3478073,31.2499228 21.726692,31.2499228 Z" id="路径" fill="url(#linearGradient-2)"></path>
            </g>
        </g>
    </g>
</svg>