<?xml version="1.0" encoding="UTF-8"?>
<svg width="45px" height="43px" viewBox="0 0 45 43" version="1.1" xmlns="http://www.w3.org/2000/svg" xmlns:xlink="http://www.w3.org/1999/xlink">
    <title>形状</title>
    <defs>
        <linearGradient x1="22.6221968%" y1="2.46791667%" x2="21.7809578%" y2="97.5320833%" id="linearGradient-1">
            <stop stop-color="#F9706B" offset="0%"></stop>
            <stop stop-color="#FA202A" offset="100%"></stop>
        </linearGradient>
    </defs>
    <g id="页面-1" stroke="none" stroke-width="1" fill="none" fill-rule="evenodd">
        <g id="画板" transform="translate(-55, -33)" fill="url(#linearGradient-1)" fill-rule="nonzero">
            <path d="M97.3328762,44.1053445 L80.5205549,33.7747915 C78.9686483,32.7417362 76.6407885,32.7417362 75.0888819,33.7747915 L58.2765607,44.1053445 C56.7246542,45.1383998 55.9487009,46.6879827 55.9487009,48.4958295 L55.9487009,66.832561 C55.9487009,71.7395737 60.0871184,75.8717949 65.0014892,75.8717949 L90.8665988,75.8717949 C95.7809696,75.8717949 99.9193871,71.7395737 99.9193871,66.832561 L99.9193871,48.4958295 C99.9193871,46.6879827 98.8847827,45.1383997 97.5915272,44.1053445 L97.3328762,44.1053445 Z M77.6753929,64.2499228 C74.0542776,64.2499228 71.2091155,61.4090207 71.2091155,57.7933271 C71.2091155,54.1776336 74.0542776,51.3367315 77.6753929,51.3367315 C81.2965082,51.3367315 84.1416703,54.1776336 84.1416703,57.7933271 C84.1416703,61.4090207 81.2965082,64.2499228 77.6753929,64.2499228 Z" id="形状"></path>
        </g>
    </g>
</svg>