<?xml version="1.0" encoding="UTF-8"?>
<svg width="52px" height="52px" viewBox="0 0 52 52" version="1.1" xmlns="http://www.w3.org/2000/svg" xmlns:xlink="http://www.w3.org/1999/xlink">
    <title>形状结合</title>
    <g id="最终版" stroke="none" stroke-width="1" fill="none" fill-rule="evenodd">
        <g id="消息" transform="translate(-49, -485)" fill="#000000" fill-rule="nonzero">
            <g id="编组-8" transform="translate(30, 468)">
                <path d="M44.9985817,17 C46.3043381,17 47.3628628,18.0585247 47.3628628,19.364281 L47.3628628,24.091038 L49.5612045,24.091038 C54.6301549,24.091038 58.2467816,24.9703267 61.3272965,26.6154476 C64.372829,28.2274734 66.863339,30.7178475 68.4754528,33.7632139 C70.1234999,36.8463972 71,40.4628266 71,45.5315006 L71,47.5623739 C71,52.6282114 70.1234999,56.2446408 68.4754528,59.3278241 C66.863339,62.3731905 64.372829,64.8635646 61.3272965,66.4755905 C58.2467816,68.1207113 54.6301549,69 49.5612045,69 L40.4387955,69 C35.3698451,69 31.7532184,68.1207113 28.6727035,66.4755905 C25.627171,64.8635646 23.136661,62.3731905 21.5245472,59.3278241 C19.8765001,56.2446408 19,52.6282114 19,47.5623739 L19,45.5315006 C19,40.4628266 19.8765001,36.8463972 21.5245472,33.7660503 C23.136661,30.7206839 25.627171,28.2303098 28.6727035,26.618284 C31.7532184,24.9646539 35.3698451,24.091038 40.4387955,24.091038 L42.6343007,24.091038 L42.6343007,19.364281 C42.6343007,18.0585247 43.6928254,17 44.9985817,17 Z M48.6919192,50 C47.5780022,51.0558511 46.2283951,51.5691489 44.5,51.5691489 C42.7716049,51.5691489 41.4219978,51.0558511 40.3080808,50 L37,53.1356383 C39.0061728,55.0345745 41.5538721,56 44.5,56 C47.4489338,56 49.9938272,55.0345745 52,53.1356383 Z M37.9085752,36.3812251 C36.603753,36.3812251 35.5457124,37.4420444 35.5457124,38.7467954 L35.5457124,43.4722631 C35.5457124,44.777165 36.6036021,45.834997 37.9085752,45.834997 C39.2135482,45.834997 40.2714379,44.777165 40.2714379,43.4722631 L40.2714379,38.7467954 C40.2714379,37.439208 39.2133973,36.3840615 37.9085752,36.3840615 Z M52.0914248,36.3812251 C50.7866027,36.3812251 49.7285621,37.4420444 49.7285621,38.7467954 L49.7285621,43.4722631 C49.7285621,44.777165 50.7864518,45.834997 52.0914248,45.834997 C53.3963979,45.834997 54.4542876,44.777165 54.4542876,43.4722631 L54.4542876,38.7467954 C54.4542876,37.439208 53.396247,36.3840615 52.0914248,36.3840615 Z" id="形状结合"></path>
            </g>
        </g>
    </g>
</svg>