<?xml version="1.0" encoding="UTF-8"?>
<svg width="46px" height="42px" viewBox="0 0 46 42" version="1.1" xmlns="http://www.w3.org/2000/svg" xmlns:xlink="http://www.w3.org/1999/xlink">
    <title>guanzhu-yiguanzhu</title>
    <g id="最终版" stroke="none" stroke-width="1" fill="none" fill-rule="evenodd">
        <g id="消息" transform="translate(-52, -365)" fill="#000000" fill-rule="nonzero">
            <g id="编组-9" transform="translate(30, 338)">
                <g id="guanzhu-yiguanzhu" transform="translate(22, 27)">
                    <path d="M41.9794152,3.81387899 C39.416558,1.35445014 35.9580357,0 32.2409688,0 C30.133183,0 28.0025513,0.601863371 25.9083705,1.78874577 C24.903096,2.35851731 23.9216429,3.05892268 22.9999487,3.86054864 C22.0781004,3.05892268 21.09675,2.35856883 20.0914754,1.78874577 C17.9972946,0.601863371 15.8666629,0 13.7587746,0 C10.0418103,0 6.58333929,1.35445014 4.02053348,3.81387899 C1.42789955,6.30199988 0,9.67473218 0,13.3109471 C0,15.4791285 0.474118304,17.5651486 1.44951339,19.6881542 C2.30569866,21.5516435 3.55658036,23.4460914 5.27367411,25.4796725 C8.3846808,29.1641025 12.8300469,33.0562278 17.977221,37.5628884 L18.4013862,37.9342882 L18.4176094,37.9483509 L21.3958013,40.5107518 C21.8422717,40.8955034 22.4114597,41.1068398 23,41.106383 C23.5885169,41.1068464 24.1576854,40.8955287 24.6041473,40.5108033 L27.5822879,37.9484024 L27.5985112,37.9343397 L28.0225223,37.563043 C33.1698504,33.0563824 37.6152165,29.1642055 40.7262232,25.4797756 C42.4433683,23.4461429 43.69425,21.5517465 44.5504353,19.6882572 C45.5258817,17.5651486 46,15.47918 46,13.3109471 C46,9.67473218 44.5721518,6.30194837 41.9794152,3.81387899 Z" id="路径"></path>
                </g>
            </g>
        </g>
    </g>
</svg>