<?xml version="1.0" encoding="UTF-8"?>
<svg width="22px" height="19px" viewBox="0 0 22 19" version="1.1" xmlns="http://www.w3.org/2000/svg" xmlns:xlink="http://www.w3.org/1999/xlink">
    <title>liebiao-2</title>
    <g id="最终版" stroke="none" stroke-width="1" fill="none" fill-rule="evenodd">
        <g id="首页" transform="translate(-584, -958)" fill="#FFFFFF" fill-rule="nonzero">
            <g id="编组-5" transform="translate(584, 953)">
                <g id="liebiao-2" transform="translate(0, 5)">
                    <path d="M2.16068086,4.29679928 C2.93268129,4.296894 3.64607987,3.88743206 4.03210759,3.222676 C4.41813531,2.55791994 4.41813531,1.73887935 4.03210759,1.07412329 C3.64607987,0.409367227 2.93268129,-9.47053827e-05 2.16068086,1.64307732e-08 C0.967473919,0.000146460685 0.000266670042,0.961974842 0.000266670042,2.14839965 C0.000266670042,3.33482445 0.967473919,4.29665283 2.16068086,4.29679928 L2.16068086,4.29679928 Z M2.16068086,11.4587519 C2.9474465,11.481788 3.68456876,11.0775957 4.08479196,10.4036883 C4.48501517,9.72978088 4.48501517,8.89278539 4.08479196,8.21887798 C3.68456876,7.54497057 2.9474465,7.14077828 2.16068086,7.16381436 C0.992641043,7.19801394 0.0635976541,8.14937899 0.0635976541,9.31128313 C0.0635976541,10.4731873 0.992641043,11.4245523 2.16068086,11.4587519 L2.16068086,11.4587519 Z M4.32136173,16.4667198 C4.32145699,17.2343322 3.90965439,17.9436759 3.24109828,18.3275094 C2.57254217,18.711343 1.74881957,18.711343 1.08026346,18.3275094 C0.411707356,17.9436759 -9.52467618e-05,17.2343322 1.65245102e-08,16.4667198 C0.000147297916,15.280295 0.967473927,14.3185854 2.16068087,14.3185854 C3.35388782,14.3185854 4.32121445,15.280295 4.32136173,16.4667198 Z M9.36170214,0.465424554 C8.5862373,0.465542597 7.95766179,1.090641 7.95766179,1.86169813 C7.95766179,2.63275527 8.5862373,3.25785367 9.36170214,3.25797171 L20.5957447,3.25797171 C21.3712095,3.25785367 21.999785,2.63275527 21.999785,1.86169813 C21.999785,1.090641 21.3712095,0.465542597 20.5957447,0.465424554 L9.36170214,0.465424554 L9.36170214,0.465424554 Z M7.95744681,9.30849058 C7.95744681,8.53734997 8.58615334,7.91221699 9.36170214,7.91221699 L20.5957447,7.91221699 C21.3712935,7.91221699 22,8.53734997 22,9.30849058 C22,10.0796312 21.3712935,10.7047642 20.5957447,10.7047642 L9.36170214,10.7047642 C8.98927047,10.7047642 8.63209263,10.5576572 8.36874367,10.2958051 C8.10539471,10.033953 7.95744681,9.67880536 7.95744681,9.30849058 Z M9.36170214,15.3590095 C8.5862373,15.3591275 7.95766179,15.9842259 7.95766179,16.755283 C7.95766179,17.5263402 8.5862373,18.1514386 9.36170214,18.1515566 L20.5957447,18.1515566 C21.3712095,18.1514386 21.999785,17.5263402 21.999785,16.755283 C21.999785,15.9842259 21.3712095,15.3591275 20.5957447,15.3590095 L9.36170214,15.3590095 L9.36170214,15.3590095 Z" id="形状"></path>
                </g>
            </g>
        </g>
    </g>
</svg>