<?xml version="1.0" encoding="UTF-8"?>
<svg
  width="100"
  height="110"
  viewBox="-1 -1 102 112"
  xmlns="http://www.w3.org/2000/svg"
  preserveAspectRatio="xMidYMid meet"
>
  <defs>
    <linearGradient id="markerGradient" x1="50%" y1="0%" x2="50%" y2="100%">
      <stop offset="0%" stop-color="#404348" />
      <stop offset="100%" stop-color="#2C303C" />
    </linearGradient>
  </defs>
  <path
    d="M53.6809713,1 C65.3394932,1 72.6654294,2.80360349 79.0649653,6.22937942 C85.4067264,9.62422756 90.3837394,14.6060608 93.7708142,20.945285 L94.1540031,21.6794208 C97.2683866,27.792405 98.9332526,34.8453613 98.9980188,45.6950967 L99,53.7322078 C99,65.4024068 97.1980099,72.735646 93.7753457,79.1415801 C90.3837394,85.4893856 85.4067264,90.4712188 79.0649653,93.8660669 C76.398652,95.2933879 71.868408,96.6959525 65.4867095,98.099627 L64.8921984,98.2295814 C63.4604179,98.5391996 62.1258534,99.193626 61.0041875,100.1362 L50.9525637,108.587135 C50.7727751,108.833866 50.5057938,108.972547 50.2289138,108.996302 C49.9740653,109.018167 49.7109125,108.942655 49.4999871,108.764864 L39.3176044,100.178176 C38.1859549,99.2279535 36.8377447,98.5709901 35.3920679,98.2653067 C28.5513418,96.8185461 23.7283356,95.3613664 20.9350347,93.8660669 C14.5932736,90.4712188 9.61626062,85.4893856 6.22918577,79.1501613 L5.84599688,78.4160255 C2.66850433,72.1791693 1,64.9640383 1,53.7322078 L1,46.3632385 C1,34.6930395 2.80199006,27.3598003 6.22465425,20.9538663 C9.61626062,14.6060608 14.5932736,9.62422756 20.9264478,6.23392258 L21.6598691,5.85037541 C27.7667433,2.73316282 34.8126684,1.06680798 45.6515247,1.00198308 Z"
    fill="url(#markerGradient)"
    stroke="#FFFFFF"
    stroke-width="2"
    stroke-linejoin="round"
  />
</svg>
