<?xml version="1.0" encoding="UTF-8"?>
<svg width="44px" height="43px" viewBox="0 0 44 43" version="1.1" xmlns="http://www.w3.org/2000/svg" xmlns:xlink="http://www.w3.org/1999/xlink">
    <title>编组 3</title>
    <g id="页面-1" stroke="none" stroke-width="1" fill="none" fill-rule="evenodd">
        <g id="画板" transform="translate(-252, -140)" fill="#FFFFFF">
            <g id="编组-3" transform="translate(252, 140)">
                <g id="a-shapechatpressedfalse" fill-rule="nonzero">
                    <path d="M0.639100091,9.78868374 C0.639100091,4.23443058 5.34619821,0 10.8179011,0 L32.7477218,0 C38.7928783,0 43.9706862,4.67676244 43.9706862,10.7785506 L43.9706862,25.353982 C43.9706862,31.4557702 38.7952677,36.1325327 32.7477218,36.1325327 L15.541725,36.1325327 C13.7544088,38.612578 11.2102188,40.4443741 8.29231603,41.3520483 L5.8336338,42.1267267 C2.92813565,43.0448641 -0.548426679,40.7423476 0.0728146808,37.213257 L0.560250224,34.4492808 C0.600314243,34.145021 0.639100091,33.8491441 0.639100091,33.5454893 L0.639100091,9.78868374 Z M10.8179011,5.73835882 C8.21107675,5.73835882 6.37363589,7.69896477 6.37363589,9.78868374 L6.37363589,33.5454893 C6.37363589,34.1838817 6.31629053,34.8174921 6.20637863,35.4463206 L6.10363485,36.0249385 L6.56717647,35.8790885 C8.7176274,35.2000494 10.4451563,33.7582868 11.4152486,31.9220119 C11.9110131,30.9818041 12.8856487,30.3929526 13.948002,30.3917829 L32.7477218,30.3917829 C35.9327786,30.3917829 38.2361504,27.9888452 38.2361504,25.353982 L38.2361504,10.7785506 C38.2361504,8.14368752 35.9327785,5.73835882 32.7477218,5.73835882 L10.8155118,5.73835882 L10.8179011,5.73835882 Z" id="形状"></path>
                </g>
                <g id="编组" transform="translate(10, 16)" stroke="#FFFFFF">
                    <circle id="椭圆形" cx="3" cy="3" r="2.5"></circle>
                    <circle id="椭圆形" cx="12" cy="3" r="2.5"></circle>
                    <circle id="椭圆形" cx="21" cy="3" r="2.5"></circle>
                </g>
            </g>
        </g>
    </g>
</svg>