<?xml version="1.0" encoding="UTF-8"?>
<svg width="45px" height="43px" viewBox="0 0 45 43" version="1.1" xmlns="http://www.w3.org/2000/svg" xmlns:xlink="http://www.w3.org/1999/xlink">
    <title>形状结合</title>
    <defs>
        <linearGradient x1="22.6221968%" y1="3.66339682%" x2="21.7809578%" y2="96.3366032%" id="linearGradient-1">
            <stop stop-color="#F9706B" offset="0%"></stop>
            <stop stop-color="#FA202A" offset="100%"></stop>
        </linearGradient>
    </defs>
    <g id="页面-1" stroke="none" stroke-width="1" fill="none" fill-rule="evenodd">
        <g id="画板" transform="translate(-251, -31)" fill="url(#linearGradient-1)" fill-rule="nonzero">
            <path d="M284.446589,31 C290.491746,31 295.669554,35.6767624 295.669554,41.7785506 L295.669554,56.353982 C295.669554,62.4557702 290.494135,67.1325327 284.446589,67.1325327 L267.240592,67.1325327 C265.453276,69.612578 262.909086,71.4443741 259.991183,72.3520483 L257.532501,73.1267267 C254.627003,74.0448641 251.150441,71.7423476 251.771682,68.213257 L252.259118,65.4492808 C252.299182,65.145021 252.337968,64.8491441 252.337968,64.5454893 L252.337968,40.7886837 C252.337968,35.2344306 257.045066,31 262.516769,31 L284.446589,31 Z M265,47 C263.343146,47 262,48.3431458 262,50 C262,51.6568542 263.343146,53 265,53 C266.656854,53 268,51.6568542 268,50 C268,48.3431458 266.656854,47 265,47 Z M274,47 C272.343146,47 271,48.3431458 271,50 C271,51.6568542 272.343146,53 274,53 C275.656854,53 277,51.6568542 277,50 C277,48.3431458 275.656854,47 274,47 Z M283,47 C281.343146,47 280,48.3431458 280,50 C280,51.6568542 281.343146,53 283,53 C284.656854,53 286,51.6568542 286,50 C286,48.3431458 284.656854,47 283,47 Z" id="形状结合"></path>
        </g>
    </g>
</svg>