<?xml version="1.0" encoding="UTF-8"?>
<svg width="50px" height="46px" viewBox="0 0 50 46" version="1.1" xmlns="http://www.w3.org/2000/svg" xmlns:xlink="http://www.w3.org/1999/xlink">
    <title>qianbao3-F</title>
    <g id="最终版" stroke="none" stroke-width="1" fill="none" fill-rule="evenodd">
        <g id="消息" transform="translate(-50, -750)" fill="#000000" fill-rule="nonzero">
            <g id="编组-6" transform="translate(30, 728)">
                <g id="qianbao3-F" transform="translate(20, 22)">
                    <path d="M40.5986186,6.72224935 C40.7974604,7.46180144 40.8672295,8.27461104 40.8951371,9.23393567 C41.2335171,9.2618433 41.5579432,9.29672783 41.871904,9.33858927 C43.9824182,9.62115398 45.8452522,10.2386102 47.3348217,11.7281797 C48.8278797,13.2142608 49.4453359,15.0736064 49.7279006,17.1771437 C50,19.1795158 50,21.7121328 50,24.7819717 L50,29.6378986 C50,32.7077374 50,35.2403544 49.7279006,37.2427266 C49.4453359,39.3462639 48.8278797,41.2056094 47.3348217,42.695179 C45.8452522,44.18126 43.9824182,44.7987162 41.871904,45.081281 C39.8660434,45.3498919 37.3264495,45.3498919 34.2496337,45.3498919 L20.2853555,45.3498919 C16.141073,45.3498919 12.8026233,45.3498919 10.175818,44.9975581 C7.44784762,44.6312705 5.15244541,43.8463685 3.32449592,42.0323728 C1.50352334,40.2114003 0.718621363,37.915998 0.348845322,35.1950045 C0,32.5786646 0,29.2437033 0,25.1098863 L0,6.80248378 C0,3.04541966 3.04890811,0 6.81643759,0 L29.8576711,0 C31.6646899,0 33.0077444,0 34.1693993,0.310472337 C37.3090072,1.14770111 39.7579013,3.58961836 40.5986186,6.72224935 Z M32.9937906,4.68848113 C32.4879648,4.55591991 31.804228,4.53498919 29.5402219,4.53498919 L6.81992604,4.53498919 C5.56762336,4.53498919 4.55243145,5.55018109 4.55243145,6.80248378 C4.55243145,8.05478646 5.56762336,9.06997837 6.81992604,9.06997837 L34.2531222,9.06997837 L36.342716,9.07346682 C36.3434956,8.67782423 36.2990194,8.28339009 36.2101444,7.89785809 C35.7886181,6.33014365 34.5624167,5.10660212 32.9937906,4.68848113 L32.9937906,4.68848113 Z M37.7869253,22.6749459 C35.2177782,22.6749459 33.1350729,24.7576512 33.1350729,27.3267983 C33.1350729,29.8959454 35.2177782,31.9786507 37.7869253,31.9786507 C40.3560724,31.9786507 42.4387776,29.8959454 42.4387776,27.3267983 C42.4387776,24.7576512 40.3560724,22.6749459 37.7869253,22.6749459 Z" id="形状"></path>
                </g>
            </g>
        </g>
    </g>
</svg>