<?xml version="1.0" encoding="UTF-8"?>
<svg width="40px" height="37px" viewBox="0 0 40 37" version="1.1" xmlns="http://www.w3.org/2000/svg" xmlns:xlink="http://www.w3.org/1999/xlink">
    <title>编组 4</title>
    <g id="最终版" stroke="none" stroke-width="1" fill="none" fill-rule="evenodd">
        <g id="消息" transform="translate(-55, -625)" fill="#000000" fill-rule="nonzero">
            <g id="编组-7" transform="translate(30, 598)">
                <g id="编组-4" transform="translate(25, 27)">
                    <path d="M31.4439462,0 C36.161435,0 40,3.83856502 40,8.55605381 C40,13.2735426 36.161435,17.1121076 31.4484305,17.1121076 L8.55605381,17.1121076 C3.83856502,17.1121076 0,13.2735426 0,8.55605381 C0,3.83856502 3.83856502,0 8.55605381,0 L31.4439462,0 Z M8.65470852,5.78026906 C7.12911477,5.78026906 5.89237668,7.01700715 5.89237668,8.5426009 C5.89237668,10.0681946 7.12911477,11.3049327 8.65470852,11.3049327 C10.1803023,11.3049327 11.4170404,10.0681946 11.4170404,8.5426009 C11.4170404,7.01700715 10.1803023,5.78026906 8.65470852,5.78026906 Z" id="形状结合"></path>
                    <path d="M31.4439462,19.4843049 C36.161435,19.4843049 40,23.32287 40,28.0403587 C40,32.7578475 36.161435,36.5964126 31.4484305,36.5964126 L8.55605381,36.5964126 C3.83856502,36.5964126 0,32.7578475 0,28.0403587 C0,23.32287 3.83856502,19.4843049 8.55605381,19.4843049 L31.4439462,19.4843049 Z M31.264574,25.2780269 C29.7389802,25.2780269 28.5022422,26.514765 28.5022422,28.0403587 C28.5022422,29.5659525 29.7389802,30.8026906 31.264574,30.8026906 C32.7901677,30.8026906 34.0269058,29.5659525 34.0269058,28.0403587 C34.0269058,26.514765 32.7901677,25.2780269 31.264574,25.2780269 Z" id="形状结合"></path>
                </g>
            </g>
        </g>
    </g>
</svg>