<?xml version="1.0" encoding="UTF-8"?>
<svg width="27px" height="28px" viewBox="0 0 27 28" version="1.1" xmlns="http://www.w3.org/2000/svg" xmlns:xlink="http://www.w3.org/1999/xlink">
    <title>benpao</title>
    <g id="最终版" stroke="none" stroke-width="1" fill="none" fill-rule="evenodd">
        <g id="首页" transform="translate(-50, -1193)" fill="#D8D8D8" fill-rule="nonzero">
            <g id="benpao" transform="translate(50, 1193)">
                <path d="M26.5307245,6.34870871 C25.9835106,5.91800208 25.1828502,5.9953084 24.7335587,6.51988699 L24.7162783,6.54197451 C23.0861568,8.45806685 21.2025888,9.63974916 19.68191,9.70601172 C18.6969249,9.74466488 17.7868217,9.34156765 16.9055192,8.47463249 C15.2120361,6.75180595 13.3227079,5.91800208 11.2951362,6.00635216 C7.60864229,6.16648667 4.94169432,9.38022081 4.83225153,9.5182678 C4.39448038,10.0483683 4.49240287,10.8214315 5.05113711,11.2355725 C5.6041112,11.6497135 6.41053176,11.5613634 6.84254277,11.025741 C6.85982321,11.0036535 8.92195576,8.55746069 11.4103392,8.45254497 C12.0957967,8.42493557 12.7582135,8.57402633 13.4091101,8.90533913 L9.61317338,16.8899775 C6.68125866,20.7166403 2.05586077,18.5741509 1.84849549,18.4747571 C1.22063949,18.1710537 0.454539961,18.4140164 0.137731887,19.0159013 C-0.179076187,19.6177862 0.0686101252,20.3577181 0.696466127,20.6614215 C0.765587889,20.6945528 2.44179061,21.5007473 4.62488625,21.6001411 C4.76888992,21.605663 4.91289359,21.6111849 5.06265741,21.6111849 C7.00958703,21.6111849 9.54405162,21.0148219 11.5485827,18.4913227 L12.4586859,18.9441169 L13.3169478,19.3748235 L13.4321507,19.4355642 C13.9736045,19.7116582 14.8088258,20.1920617 15.7016486,20.9209499 C17.7004195,22.5609482 19.0252533,24.6261313 19.6358288,27.0612804 C19.7798325,27.6245122 20.2982457,28 20.8742604,28 C20.9721829,28 21.0758655,27.9889562 21.173788,27.9668687 C21.8592455,27.8067342 22.2797362,27.1441086 22.1184521,26.4870049 C20.7129763,20.8933405 16.5080691,18.2097068 14.6360214,17.2654654 L17.6255376,11.8319355 C18.2361131,12.0472888 18.8870097,12.1577264 19.5379063,12.1577264 C19.6185484,12.1577264 19.7049506,12.1577264 19.7855926,12.1522045 C22.8960719,12.0252013 25.4478169,9.55692096 26.6920087,8.09362278 L26.7092891,8.07705714 C27.1585805,7.54695666 27.0779385,6.77389347 26.5307245,6.34870871 L26.5307245,6.34870871 Z" id="路径"></path>
                <path d="M15,3.5 C15,4.74746361 15.6672551,5.90846934 16.7484554,6.53220115 C17.8296558,7.15593295 19.1641659,7.15593295 20.2515446,6.53220115 C21.3327449,5.90846934 22,4.75363917 22,3.5 C22,2.24636083 21.3327449,1.09153066 20.2515446,0.467798853 C19.1703442,-0.155932951 17.8358341,-0.155932951 16.7484554,0.467798853 C15.6672551,1.09153066 15,2.24636083 15,3.5 Z" id="路径"></path>
            </g>
        </g>
    </g>
</svg>