<?xml version="1.0" encoding="UTF-8"?>
<svg width="30px" height="30px" viewBox="0 0 30 30" version="1.1" xmlns="http://www.w3.org/2000/svg" xmlns:xlink="http://www.w3.org/1999/xlink">
    <title>sousuo-3</title>
    <g id="最终版" stroke="none" stroke-width="1" fill="none" fill-rule="evenodd">
        <g id="首页-查看列表" transform="translate(-152, -117)" fill="#FFFFFF" fill-rule="nonzero">
            <g id="sousuo-3" transform="translate(152, 117)">
                <path d="M29.3287729,27.3835401 C29.1410747,27.1961227 28.9533766,27.0255729 28.7769404,26.8381555 C27.2603396,25.2563527 25.7456158,23.6726758 24.1633206,22.0271511 C24.2308919,21.9240715 24.3059712,21.8247403 24.3791735,21.7254091 C26.0077119,19.7273292 27.0110668,17.2947203 27.2640936,14.7309921 C27.7880888,10.2308045 25.8924969,5.78895474 22.2788315,3.04926615 C18.8446116,0.239573278 14.2451785,-0.701788134 9.98085082,0.532250587 C6.05736408,1.54468834 2.80941335,4.28654041 1.15697514,7.98118188 C-0.495463074,11.6758234 -0.372415473,15.9208569 1.49126492,19.5138839 C3.45998184,23.4010556 7.23048097,26.0609575 11.557515,26.6151288 C14.9720445,27.1850128 18.4748486,26.4103888 21.329079,24.4542063 C21.7457688,24.1749544 22.0198081,24.1524643 22.3783115,24.5441666 C22.9920844,25.2076242 23.6602897,25.8223532 24.3059712,26.4576982 C25.3026482,27.436017 26.2899403,28.4237066 27.2978792,29.3926545 C27.5746156,29.7448109 27.9873923,29.9639372 28.4345322,29.9960575 C28.8816721,30.0281777 29.3216116,29.870306 29.6459827,29.5613302 C30.209077,28.955972 30.0983351,28.1594481 29.3287729,27.3835401 Z M13.6390871,23.9912853 C7.74890966,24.0186633 2.93487921,19.3054616 2.84644534,13.4246929 C2.87855401,10.5841408 4.04240255,7.87333354 6.08070356,5.89153856 C8.11900456,3.90974358 10.8638816,2.82018344 13.7085355,2.86372293 C16.539528,2.84427636 19.2621415,3.94935253 21.276637,5.93552454 C23.2911325,7.92169656 24.4322494,10.6260275 24.4486218,13.4528055 C24.361111,19.3361394 19.5316423,24.0445066 13.6390871,23.9912853 L13.6390871,23.9912853 Z" id="形状"></path>
            </g>
        </g>
    </g>
</svg>