<?xml version="1.0" encoding="UTF-8"?>
<svg width="44px" height="44px" viewBox="0 0 44 44" version="1.1" xmlns="http://www.w3.org/2000/svg" xmlns:xlink="http://www.w3.org/1999/xlink">
    <title>a-shapeexplorepressedfalse</title>
    <defs>
        <linearGradient x1="0.0666000592%" y1="2.35922393e-14%" x2="99.9333999%" y2="100%" id="linearGradient-1">
            <stop stop-color="#333844" offset="0%"></stop>
            <stop stop-color="#525461" offset="100%"></stop>
        </linearGradient>
        <linearGradient x1="0.0666000592%" y1="2.35922393e-14%" x2="99.9333999%" y2="100%" id="linearGradient-2">
            <stop stop-color="#333844" offset="0%"></stop>
            <stop stop-color="#525461" offset="100%"></stop>
        </linearGradient>
    </defs>
    <g id="最终版" stroke="none" stroke-width="1" fill="none" fill-rule="evenodd">
        <g id="广场" transform="translate(-203, -1484)" fill-rule="nonzero">
            <g id="a-shapeexplorepressedfalse" transform="translate(202.9927, 1484)">
                <path d="M15.6898304,13.5839491 C17.1510169,14.4387507 18.8145217,14.9111411 20.5229859,14.9786254 C21.2423393,15.0011202 21.7818543,15.9908905 21.4221776,16.5982495 C20.5685785,18.0717387 20.0899589,19.7325745 20.0284305,21.4346271 C20.0059507,22.15446 19.0168398,22.6943347 18.4098854,22.3344183 C16.9373779,21.4802501 15.2776485,21.0013114 13.5767299,20.939742 C12.8573766,20.9172472 12.3178615,19.9274769 12.6775382,19.3201179 C13.5317703,17.8579572 14.0038459,16.1933435 14.0712853,14.4837402 C14.0937651,13.7639073 15.082876,13.2240326 15.6898304,13.5839491 L15.6898304,13.5839491 Z" id="路径" fill="url(#linearGradient-1)"></path>
                <path d="M42.497768,1.37994286 C44.6051741,3.48379022 44.2199493,7.69148494 41.8859404,12.7814382 L41.9086007,12.7814382 C43.222897,15.6091901 43.9706862,18.7536501 43.9706862,22.0790863 C43.9706862,34.1818641 34.1361242,43.9999101 22.0128738,43.9999101 C18.7600672,44.0092521 15.5465468,43.2903299 12.6088571,41.8959711 C9.8669631,43.1401819 7.37433219,43.7962203 5.35756714,43.7962203 C3.68070635,43.7962203 2.32108948,43.366402 1.39201797,42.4162775 C-0.715388174,40.3350521 -0.352823658,36.1499794 1.95852497,31.0826481 C0.681472599,28.2606499 0.0246999287,25.1983152 0.0324011036,22.1017083 C0.0324011036,9.97630846 9.8669631,0.158354067 21.9902135,0.1809761 C25.1853132,0.1809761 28.1991306,0.837014507 30.9183643,2.0586033 C33.8188802,0.723904451 36.4248126,0 38.5322187,0 C40.2090795,0 41.5686964,0.452440275 42.497768,1.37994286 Z M6.87580599,38.0049846 C8.12212147,37.7335204 10.0482453,37.077482 12.7448188,35.584429 L12.7901394,35.539185 C12.8556474,35.503363 12.9213633,35.4679212 12.9872838,35.4328615 C13.1776302,35.3310625 13.3747746,35.2270012 13.5605889,35.1093667 C17.5487984,32.8019212 21.5823285,29.6574612 25.6838393,25.5628765 C29.7853502,21.4682919 33.2750335,16.989133 35.5863822,12.8945483 C35.7450042,12.6230842 35.8809659,12.374242 36.0169275,12.1027778 C37.1499416,9.95368643 37.7617692,8.27965731 38.0563528,7.08069055 C38.0563528,7.04675753 38.067683,7.0060379 38.0790131,6.96758049 C38.091443,6.93101636 38.0990602,6.89299459 38.1016734,6.85447044 C38.1764225,6.54958418 38.0863017,6.22786088 37.8639755,6.00591022 C37.6416494,5.78395955 37.3193819,5.69399091 37.0139799,5.76861374 L36.9210727,5.79802232 C36.8712201,5.81838213 36.8213675,5.83647973 36.7647168,5.83647978 C35.5184013,6.13056599 33.7055789,6.78660439 31.2129479,8.14392527 C31.0090054,8.27965736 30.7597423,8.27965736 30.5557998,8.14392527 C28.6296759,6.96758049 26.4996095,6.19843203 24.2562416,5.90434582 C23.2818495,5.76861374 22.3074575,5.72336972 21.3104051,5.76861374 C17.2697942,5.94439606 13.4366147,7.60397819 10.5467715,10.4287487 C7.39262839,13.4949194 5.61840989,17.7066739 5.62943892,22.1017083 C5.62280768,25.1220789 6.46267628,28.0840809 8.05414063,30.6528298 C8.16744202,30.856428 8.16744202,31.1278921 8.05414063,31.3314903 C8.02015021,31.3880453 7.99069182,31.4446003 7.96349949,31.5011554 C7.9340411,31.5577104 7.90684877,31.6142654 7.87285834,31.6708205 C6.67186346,33.955644 6.06003587,35.6749171 5.7881125,36.8965059 L5.7881125,36.9191279 C5.65215081,37.5751663 6.21865786,38.1407167 6.87580599,38.0049846 L6.87580599,38.0049846 Z M21.9902135,38.4348029 C26.3636478,38.4348029 30.487819,36.7155297 33.5696172,33.6389358 L33.5469569,33.6841798 C36.63286,30.6276313 38.3631464,26.4640311 38.3510007,22.1243303 C38.3510007,21.1968277 38.2829557,20.2693251 38.1243337,19.3644445 C35.8583055,22.7125027 32.9577896,26.1962929 29.5814077,29.5669731 C26.137045,33.0055193 22.5793808,35.9237592 19.1803387,38.2085827 C20.1094102,38.3443148 21.0384817,38.4348029 21.9902135,38.4348029 Z" id="形状" fill="url(#linearGradient-2)"></path>
            </g>
        </g>
    </g>
</svg>