<?xml version="1.0" encoding="UTF-8"?>
<svg width="45px" height="44px" viewBox="0 0 45 44" version="1.1" xmlns="http://www.w3.org/2000/svg" xmlns:xlink="http://www.w3.org/1999/xlink">
    <title>形状结合</title>
    <defs>
        <linearGradient x1="22.658664%" y1="-5.44703171e-14%" x2="21.8185456%" y2="100%" id="linearGradient-1">
            <stop stop-color="#F9706B" offset="0%"></stop>
            <stop stop-color="#FA202A" offset="100%"></stop>
        </linearGradient>
    </defs>
    <g id="页面-1" stroke="none" stroke-width="1" fill="none" fill-rule="evenodd">
        <g id="画板" transform="translate(-150, -32)" fill="url(#linearGradient-1)" fill-rule="nonzero">
            <path d="M189.35567,32 C191.032531,32 192.392147,32.4524403 193.321219,33.3799429 C195.428625,35.4837902 195.0434,39.6914849 192.709391,44.7814382 L192.732052,44.7814382 C194.046348,47.6091901 194.794137,50.7536501 194.794137,54.0790863 C194.794137,66.1818641 184.959575,75.9999101 172.836325,75.9999101 C169.583518,76.0092521 166.369998,75.2903299 163.432308,73.8959711 C160.690414,75.1401819 158.197783,75.7962203 156.181018,75.7962203 C154.504157,75.7962203 153.144541,75.366402 152.215469,74.4162775 C150.108063,72.3350521 150.470627,68.1499794 152.781976,63.0826481 C151.504924,60.2606499 150.848151,57.1983152 150.855852,54.1017083 C150.855852,41.9763085 160.690414,32.1583541 172.813665,32.1809761 C176.008764,32.1809761 179.022582,32.8370145 181.741815,34.0586033 C184.642331,32.7239045 187.248264,32 189.35567,32 Z M188.947785,51.3644445 C186.681757,54.7125027 183.781241,58.1962929 180.404859,61.5669731 C176.960496,65.0055193 173.402832,67.9237592 170.00379,70.2085827 C170.932861,70.3443148 171.861933,70.4348029 172.813665,70.4348029 C177.187099,70.4348029 181.31127,68.7155297 184.393068,65.6389358 L184.370408,65.6841798 C187.456311,62.6276313 189.186597,58.4640311 189.174452,54.1243303 C189.174452,53.1968277 189.106407,52.2693251 188.947785,51.3644445 Z M166.513281,45.5839491 C165.906327,45.2240326 164.917216,45.7639073 164.894736,46.4837402 C164.827297,48.1933435 164.355221,49.8579572 163.500989,51.3201179 C163.141313,51.9274769 163.680828,52.9172472 164.400181,52.939742 C166.1011,53.0013114 167.760829,53.4802501 169.233336,54.3344183 C169.840291,54.6943347 170.829402,54.15446 170.851882,53.4346271 C170.91341,51.7325745 171.39203,50.0717387 172.245629,48.5982495 C172.605305,47.9908905 172.06579,47.0011202 171.346437,46.9786254 C169.637973,46.9111411 167.974468,46.4387507 166.513281,45.5839491 Z" id="形状结合"></path>
        </g>
    </g>
</svg>