<?xml version="1.0" encoding="UTF-8"?>
<svg width="36px" height="45px" viewBox="0 0 36 45" version="1.1" xmlns="http://www.w3.org/2000/svg" xmlns:xlink="http://www.w3.org/1999/xlink">
    <title>lingdang</title>
    <g id="最终版" stroke="none" stroke-width="1" fill="none" fill-rule="evenodd">
        <g id="消息" transform="translate(-57, -231)" fill="#000000" fill-rule="nonzero">
            <g id="编组-10" transform="translate(30, 208)">
                <g id="lingdang" transform="translate(27, 23)">
                    <path d="M34.7823643,31.78 C35.8514155,32.6046717 36.2706893,34.0223763 35.8221908,35.296 C35.4034729,36.5742016 34.2074963,37.4357717 32.8626846,37.4280619 L3.12764559,37.4280619 C1.78135565,37.4364843 0.584373543,36.572572 0.168139347,35.292 C-0.263061244,34.0192031 0.15336292,32.6127361 1.20796585,31.78 L4.04749212,29.548 C4.55905336,29.1494711 4.8573462,28.5365395 4.85535731,27.888 L4.85535731,17.616 C4.85050992,11.626351 8.86443421,6.3785157 14.6457239,4.81600002 L14.6457239,3.37599999 C14.6497232,1.50800001 16.149473,0 17.9971647,0 C19.8448565,0 21.3446063,1.51200002 21.3486056,3.37199998 L21.3486056,4.81600002 C25.2969513,5.86358227 28.532004,8.69102875 30.0991456,12.464 C30.7870308,14.1 31.1349728,15.832 31.1349728,17.616 L31.1349728,27.892 C31.1349728,28.544 31.4269241,29.152 31.9388387,29.552 L34.7823643,31.78 Z M13.5619047,40.328 L13.5619047,40.24 L22.4324308,40.24 L22.4324308,40.328 C22.4364241,42.8 20.4447564,44.8 17.9971647,44.8 C15.5495731,44.8 13.5579054,42.796 13.5579054,40.328 L13.5619047,40.328 Z" id="形状"></path>
                </g>
            </g>
        </g>
    </g>
</svg>