<?xml version="1.0" encoding="UTF-8"?>
<svg width="20px" height="20px" viewBox="0 0 20 20" version="1.1" xmlns="http://www.w3.org/2000/svg" xmlns:xlink="http://www.w3.org/1999/xlink">
    <title>shijiankaishishijian2</title>
    <g id="最终版" stroke="none" stroke-width="1" fill="none" fill-rule="evenodd">
        <g id="首页-查看列表" transform="translate(-51, -914)" fill-rule="nonzero">
            <g id="shijiankaishishijian2" transform="translate(51, 914)">
                <path d="M10.0007155,0 C4.47976145,0.00552175837 0.00552135251,4.480082 0,10.001431 C0.00709969067,15.5222204 4.48174946,19.9952697 10.0021464,20 C15.5208669,19.9929045 19.992905,15.5205465 20,10.001431 C19.9944801,4.48064001 15.5211106,0.00631032767 10.0007155,0 Z" id="路径" fill="#B5B5B5" opacity="0.5"></path>
                <path d="M14.488475,12.4154223 L10.786054,10.3764645 L10.786054,4.81567037 C10.7662105,4.35982563 10.3722596,4 9.89302701,4 C9.41379437,4 9.01984355,4.35982563 9,4.81567037 L9,10.7661579 C9,11.0814155 9.41086908,11.3455898 9.67916045,11.4915424 C9.75274894,11.5980878 9.95665039,11.6944165 10.080831,11.7615547 L13.7633217,13.8866245 C14.1910548,14.1201487 14.652516,13.9814937 14.899344,13.5757455 C15.144639,13.1699973 14.916208,12.650406 14.488475,12.4154223 Z" id="路径" fill="#FFFFFF"></path>
            </g>
        </g>
    </g>
</svg>