<?xml version="1.0" encoding="UTF-8"?>
<svg width="45px" height="44px" viewBox="0 0 45 44" version="1.1" xmlns="http://www.w3.org/2000/svg" xmlns:xlink="http://www.w3.org/1999/xlink">
    <title>形状结合</title>
    <g id="页面-1" stroke="none" stroke-width="1" fill="none" fill-rule="evenodd">
        <g id="画板" transform="translate(-352, -140)" fill="#FFFFFF" fill-rule="nonzero">
            <path d="M374.558961,140 C386.701466,140 396.544304,149.8494 396.544304,162 C396.544304,174.1506 386.701466,184 374.558961,184 C362.416456,184 352.573618,174.1506 352.573618,162 C352.573618,149.8494 362.416456,140 374.558961,140 Z M374.558961,145.5 C365.452333,145.5 358.069953,152.887302 358.069953,162 C358.069953,171.112699 365.452333,178.5 374.558961,178.5 C383.665588,178.5 391.047968,171.112699 391.047968,162 C391.047968,152.887302 383.665588,145.5 374.558961,145.5 Z M383.353098,164.2 C383.353098,169.060106 379.415829,173 374.558961,173 C369.702093,173 365.764823,169.060106 365.764823,164.2 L383.353098,164.2 Z" id="形状结合"></path>
        </g>
    </g>
</svg>